<svg xmlns="http://www.w3.org/2000/svg" width="512" height="512" viewBox="0 0 128 128">
  <!-- Fondo menta -->
  <rect width="128" height="128" fill="#b6f5ec"/>

  <!-- Tag inclinado, simple y grande -->
  <g transform="rotate(-45 64 64)">
    <path d="M28 44
             a10 10 0 0 1 10-10
             h40
             a8 8 0 0 1 5.7 2.3
             l18 18
             a8 8 0 0 1 0 11.4
             l-18 18
             a8 8 0 0 1 -5.7 2.3
             h-40
             a10 10 0 0 1 -10-10
             z" fill="#e7ddc6"/>
    <circle cx="84" cy="58" r="7" fill="#b6f5ec"/>
    <text x="50" y="74" font-family="Arial, sans-serif" font-size="46" font-weight="bold" fill="#1f7a44" text-anchor="middle">$</text>
  </g>

  <!-- Prohibición: aro + barra gruesos para que lean a 16px -->
  <circle cx="64" cy="64" r="52" fill="none" stroke="#f87963" stroke-width="15"/>
  <line x1="28" y1="28" x2="100" y2="100" stroke="#f87963" stroke-width="15" stroke-linecap="round"/>
</svg>
